<svg width="66" height="31" viewBox="0 0 66 31" fill="none" xmlns="http://www.w3.org/2000/svg">
<path d="M36.2695 3.89062L31.6992 30.1797L20.6055 30.4141L18.2227 17.1719L15.8398 29.3984L4.74609 29.7891L0.136719 4.67188L9.82422 3.8125L11.7773 19.2422L14.3945 4.98438H22.0117L25.0586 19.4375L26.6211 3.03125L36.2695 3.89062ZM65.25 13C65.25 16 64.625 18.2734 63.375 19.8203C62.1406 21.3672 60.3125 22.1562 57.8906 22.1875C56.9688 22.2188 56.1641 22.1641 55.4766 22.0234C54.7891 21.8672 54.2109 21.6797 53.7422 21.4609C53.2734 21.2266 52.9062 20.9766 52.6406 20.7109C52.3906 20.4453 52.2344 20.2031 52.1719 19.9844C51.8438 20.5 51.4141 20.8516 50.8828 21.0391C50.3672 21.2109 49.8594 21.2969 49.3594 21.2969C48.5781 21.2969 47.8359 21.1875 47.1328 20.9688C46.4453 20.75 45.8438 20.4141 45.3281 19.9609C44.8125 19.4922 44.3984 18.9062 44.0859 18.2031C43.7891 17.4844 43.6406 16.6406 43.6406 15.6719C43.6406 14.7812 43.7812 14.0078 44.0625 13.3516C44.3594 12.6797 44.7656 12.125 45.2812 11.6875C45.7969 11.2344 46.3984 10.8984 47.0859 10.6797C47.7891 10.4453 48.5469 10.3281 49.3594 10.3281C49.9688 10.3281 50.5625 10.4844 51.1406 10.7969C51.7188 11.0938 52.1875 11.6094 52.5469 12.3438V9.95312L57.5156 9.90625L57.375 18.3906L57.9844 18.2969C58.2188 18.2344 58.4297 18.0625 58.6172 17.7812C58.7734 17.5469 58.9141 17.1797 59.0391 16.6797C59.1797 16.1797 59.25 15.4844 59.25 14.5938C59.25 13.2031 59.0469 12.0156 58.6406 11.0312C58.2344 10.0469 57.6484 9.24219 56.8828 8.61719C56.1172 7.99219 55.1797 7.53906 54.0703 7.25781C52.9609 6.96094 51.7031 6.8125 50.2969 6.8125C48.7656 6.82813 47.3984 7.125 46.1953 7.70312C45.6797 7.95312 45.1719 8.27344 44.6719 8.66406C44.1875 9.05469 43.75 9.54688 43.3594 10.1406C42.9844 10.7188 42.6797 11.4141 42.4453 12.2266C42.2109 13.0391 42.0938 13.9844 42.0938 15.0625C42.0938 16.3906 42.2344 17.5234 42.5156 18.4609C42.8125 19.3984 43.1953 20.1875 43.6641 20.8281C44.1328 21.4531 44.6641 21.9531 45.2578 22.3281C45.8672 22.6875 46.4922 22.9609 47.1328 23.1484C48.6016 23.5703 50.2812 23.6094 52.1719 23.2656V27.7188C49.9219 28.1875 47.8125 28.2422 45.8438 27.8828C43.875 27.5234 42.1562 26.7969 40.6875 25.7031C39.2188 24.6094 38.0625 23.1797 37.2188 21.4141C36.375 19.6484 35.9531 17.5938 35.9531 15.25C35.9531 12.9531 36.2578 10.9922 36.8672 9.36719C37.4766 7.74219 38.2578 6.38281 39.2109 5.28906C40.1797 4.19531 41.25 3.33594 42.4219 2.71094C43.6094 2.07031 44.7812 1.58594 45.9375 1.25781C47.0938 0.929688 48.1641 0.71875 49.1484 0.625C50.1484 0.53125 50.9375 0.484375 51.5156 0.484375C53.625 0.484375 55.5234 0.8125 57.2109 1.46875C58.9141 2.125 60.3594 3.01562 61.5469 4.14062C62.7344 5.26562 63.6484 6.59375 64.2891 8.125C64.9297 9.64062 65.25 11.2656 65.25 13ZM48.7969 15.4844C48.7969 16.0781 48.9141 16.5703 49.1484 16.9609C49.3984 17.3516 49.7812 17.5469 50.2969 17.5469C50.8125 17.5469 51.2344 17.3516 51.5625 16.9609C51.9062 16.5703 52.0781 16.0781 52.0781 15.4844C52.0781 14.9375 51.9062 14.5391 51.5625 14.2891C51.2344 14.0234 50.8125 13.8906 50.2969 13.8906C49.2969 13.8906 48.7969 14.4219 48.7969 15.4844Z" fill="#3C7FED"/>
</svg>
