<svg width="160" height="32" viewBox="0 0 160 32" fill="none" xmlns="http://www.w3.org/2000/svg">
<path d="M23.8867 12.1719C23.8867 13.1875 23.7956 14.112 23.6133 14.9453C23.444 15.7656 23.1706 16.5208 22.793 17.2109C22.4154 17.901 21.9271 18.5391 21.3281 19.125C20.7292 19.7109 20.0065 20.2708 19.1602 20.8047L23.8086 29.0859L15.0195 30.8047L12.0117 22.4844L9.58984 22.5625L9.23828 30.6875H0.839844C0.904948 27.7188 0.963542 24.763 1.01562 21.8203C1.08073 18.8776 1.15234 15.9219 1.23047 12.9531C1.25651 11.4557 1.28255 9.97135 1.30859 8.5C1.33464 7.02865 1.38672 5.54427 1.46484 4.04688C2.3763 3.70833 3.27474 3.42839 4.16016 3.20703C5.04557 2.98568 5.93099 2.81641 6.81641 2.69922C7.71484 2.56901 8.61979 2.48438 9.53125 2.44531C10.4557 2.39323 11.3997 2.36719 12.3633 2.36719C13.8477 2.36719 15.2799 2.57552 16.6602 2.99219C18.0534 3.39583 19.2839 4.00781 20.3516 4.82812C21.4193 5.64844 22.2721 6.67057 22.9102 7.89453C23.5612 9.11849 23.8867 10.5443 23.8867 12.1719ZM15.1367 12.7969C15.1367 12.25 15.0586 11.7487 14.9023 11.293C14.7591 10.8372 14.5378 10.4466 14.2383 10.1211C13.9518 9.78255 13.5872 9.52214 13.1445 9.33984C12.7148 9.14453 12.207 9.04688 11.6211 9.04688C11.3607 9.04688 11.1068 9.06641 10.8594 9.10547C10.612 9.13151 10.3711 9.17708 10.1367 9.24219L9.82422 16.5078H10.293C10.8529 16.5078 11.4193 16.4362 11.9922 16.293C12.5781 16.1497 13.099 15.9284 13.5547 15.6289C14.0234 15.3294 14.401 14.9453 14.6875 14.4766C14.987 14.0078 15.1367 13.4479 15.1367 12.7969ZM46.8555 15.2188C46.8555 16.3516 46.7773 17.4844 46.6211 18.6172C44.3945 18.7604 42.181 18.9948 39.9805 19.3203C37.7799 19.6328 35.5794 19.9453 33.3789 20.2578C33.7174 21.1953 34.2448 21.944 34.9609 22.5039C35.6901 23.0638 36.556 23.3438 37.5586 23.3438C38.0794 23.3438 38.6458 23.2461 39.2578 23.0508C39.8828 22.8555 40.5013 22.6146 41.1133 22.3281C41.7253 22.0286 42.3112 21.7096 42.8711 21.3711C43.431 21.0326 43.9128 20.7266 44.3164 20.4531L43.3789 29.3203C42.8711 29.7109 42.3177 30.043 41.7188 30.3164C41.1328 30.5898 40.5208 30.8112 39.8828 30.9805C39.2448 31.1497 38.6003 31.2734 37.9492 31.3516C37.2982 31.4297 36.6602 31.4688 36.0352 31.4688C34.7461 31.4688 33.5677 31.293 32.5 30.9414C31.4323 30.5898 30.4622 30.1016 29.5898 29.4766C28.7305 28.8385 27.9753 28.0898 27.3242 27.2305C26.6732 26.3711 26.1328 25.4336 25.7031 24.418C25.2734 23.4023 24.9479 22.3281 24.7266 21.1953C24.5052 20.0625 24.3945 18.9167 24.3945 17.7578C24.3945 16.5469 24.5052 15.3359 24.7266 14.125C24.9479 12.9141 25.2799 11.7487 25.7227 10.6289C26.1784 9.50911 26.7448 8.47396 27.4219 7.52344C28.112 6.5599 28.9128 5.72005 29.8242 5.00391C30.7357 4.28776 31.7643 3.72786 32.9102 3.32422C34.069 2.92057 35.3451 2.71875 36.7383 2.71875C37.8971 2.71875 38.9518 2.88151 39.9023 3.20703C40.8659 3.51953 41.7188 3.96224 42.4609 4.53516C43.2161 5.09505 43.8672 5.76562 44.4141 6.54688C44.974 7.32812 45.4297 8.1875 45.7812 9.125C46.1458 10.0495 46.4128 11.0326 46.582 12.0742C46.7643 13.1029 46.8555 14.151 46.8555 15.2188ZM39.043 14.2031C39.043 13.8385 39.0039 13.4674 38.9258 13.0898C38.8477 12.6992 38.7174 12.3477 38.5352 12.0352C38.3659 11.7227 38.138 11.4688 37.8516 11.2734C37.5651 11.0651 37.207 10.9609 36.7773 10.9609C36.2565 10.9609 35.7943 11.1042 35.3906 11.3906C35 11.6641 34.6615 12.0156 34.375 12.4453C34.0885 12.862 33.8542 13.3177 33.6719 13.8125C33.4896 14.3073 33.3529 14.763 33.2617 15.1797L39.043 14.6328V14.2031ZM83.0273 3.89062L78.457 30.1797L67.3633 30.4141L64.9805 17.1719L62.5977 29.3984L51.5039 29.7891L46.8945 4.67188L56.582 3.8125L58.5352 19.2422L61.1523 4.98438H68.7695L71.8164 19.4375L73.3789 3.03125L83.0273 3.89062ZM112.808 13C112.808 16 112.183 18.2734 110.933 19.8203C109.698 21.3672 107.87 22.1562 105.448 22.1875C104.527 22.2188 103.722 22.1641 103.034 22.0234C102.347 21.8672 101.769 21.6797 101.3 21.4609C100.831 21.2266 100.464 20.9766 100.198 20.7109C99.9484 20.4453 99.7922 20.2031 99.7297 19.9844C99.4016 20.5 98.9719 20.8516 98.4406 21.0391C97.925 21.2109 97.4172 21.2969 96.9172 21.2969C96.1359 21.2969 95.3938 21.1875 94.6906 20.9688C94.0031 20.75 93.4016 20.4141 92.8859 19.9609C92.3703 19.4922 91.9563 18.9062 91.6438 18.2031C91.3469 17.4844 91.1984 16.6406 91.1984 15.6719C91.1984 14.7812 91.3391 14.0078 91.6203 13.3516C91.9172 12.6797 92.3234 12.125 92.8391 11.6875C93.3547 11.2344 93.9563 10.8984 94.6438 10.6797C95.3469 10.4453 96.1047 10.3281 96.9172 10.3281C97.5266 10.3281 98.1203 10.4844 98.6984 10.7969C99.2766 11.0938 99.7453 11.6094 100.105 12.3438V9.95312L105.073 9.90625L104.933 18.3906L105.542 18.2969C105.777 18.2344 105.988 18.0625 106.175 17.7812C106.331 17.5469 106.472 17.1797 106.597 16.6797C106.738 16.1797 106.808 15.4844 106.808 14.5938C106.808 13.2031 106.605 12.0156 106.198 11.0312C105.792 10.0469 105.206 9.24219 104.441 8.61719C103.675 7.99219 102.738 7.53906 101.628 7.25781C100.519 6.96094 99.2609 6.8125 97.8547 6.8125C96.3234 6.82813 94.9563 7.125 93.7531 7.70312C93.2375 7.95312 92.7297 8.27344 92.2297 8.66406C91.7453 9.05469 91.3078 9.54688 90.9172 10.1406C90.5422 10.7188 90.2375 11.4141 90.0031 12.2266C89.7688 13.0391 89.6516 13.9844 89.6516 15.0625C89.6516 16.3906 89.7922 17.5234 90.0734 18.4609C90.3703 19.3984 90.7531 20.1875 91.2219 20.8281C91.6906 21.4531 92.2219 21.9531 92.8156 22.3281C93.425 22.6875 94.05 22.9609 94.6906 23.1484C96.1594 23.5703 97.8391 23.6094 99.7297 23.2656V27.7188C97.4797 28.1875 95.3703 28.2422 93.4016 27.8828C91.4328 27.5234 89.7141 26.7969 88.2453 25.7031C86.7766 24.6094 85.6203 23.1797 84.7766 21.4141C83.9328 19.6484 83.5109 17.5938 83.5109 15.25C83.5109 12.9531 83.8156 10.9922 84.425 9.36719C85.0344 7.74219 85.8156 6.38281 86.7688 5.28906C87.7375 4.19531 88.8078 3.33594 89.9797 2.71094C91.1672 2.07031 92.3391 1.58594 93.4953 1.25781C94.6516 0.929688 95.7219 0.71875 96.7063 0.625C97.7063 0.53125 98.4953 0.484375 99.0734 0.484375C101.183 0.484375 103.081 0.8125 104.769 1.46875C106.472 2.125 107.917 3.01562 109.105 4.14062C110.292 5.26562 111.206 6.59375 111.847 8.125C112.488 9.64062 112.808 11.2656 112.808 13ZM96.3547 15.4844C96.3547 16.0781 96.4719 16.5703 96.7063 16.9609C96.9563 17.3516 97.3391 17.5469 97.8547 17.5469C98.3703 17.5469 98.7922 17.3516 99.1203 16.9609C99.4641 16.5703 99.6359 16.0781 99.6359 15.4844C99.6359 14.9375 99.4641 14.5391 99.1203 14.2891C98.7922 14.0234 98.3703 13.8906 97.8547 13.8906C96.8547 13.8906 96.3547 14.4219 96.3547 15.4844ZM136.333 12.1719C136.333 13.1875 136.242 14.112 136.059 14.9453C135.89 15.7656 135.617 16.5208 135.239 17.2109C134.861 17.901 134.373 18.5391 133.774 19.125C133.175 19.7109 132.452 20.2708 131.606 20.8047L136.255 29.0859L127.465 30.8047L124.458 22.4844L122.036 22.5625L121.684 30.6875H113.286C113.351 27.7188 113.409 24.763 113.462 21.8203C113.527 18.8776 113.598 15.9219 113.676 12.9531C113.702 11.4557 113.728 9.97135 113.755 8.5C113.781 7.02865 113.833 5.54427 113.911 4.04688C114.822 3.70833 115.721 3.42839 116.606 3.20703C117.492 2.98568 118.377 2.81641 119.262 2.69922C120.161 2.56901 121.066 2.48438 121.977 2.44531C122.902 2.39323 123.846 2.36719 124.809 2.36719C126.294 2.36719 127.726 2.57552 129.106 2.99219C130.499 3.39583 131.73 4.00781 132.798 4.82812C133.865 5.64844 134.718 6.67057 135.356 7.89453C136.007 9.11849 136.333 10.5443 136.333 12.1719ZM127.583 12.7969C127.583 12.25 127.505 11.7487 127.348 11.293C127.205 10.8372 126.984 10.4466 126.684 10.1211C126.398 9.78255 126.033 9.52214 125.59 9.33984C125.161 9.14453 124.653 9.04688 124.067 9.04688C123.807 9.04688 123.553 9.06641 123.305 9.10547C123.058 9.13151 122.817 9.17708 122.583 9.24219L122.27 16.5078H122.739C123.299 16.5078 123.865 16.4362 124.438 16.293C125.024 16.1497 125.545 15.9284 126.001 15.6289C126.469 15.3294 126.847 14.9453 127.133 14.4766C127.433 14.0078 127.583 13.4479 127.583 12.7969ZM159.829 15.4922C159.829 17.3151 159.594 18.9492 159.126 20.3945C158.657 21.8398 157.999 23.1224 157.153 24.2422C156.32 25.349 155.324 26.293 154.165 27.0742C153.006 27.8555 151.736 28.5 150.356 29.0078C148.976 29.5026 147.505 29.8672 145.942 30.1016C144.393 30.3359 142.798 30.4531 141.157 30.4531C140.545 30.4531 139.946 30.4401 139.36 30.4141C138.774 30.375 138.175 30.3229 137.563 30.2578L138.11 4.82812C139.542 4.3724 141.014 4.05339 142.524 3.87109C144.048 3.67578 145.558 3.57812 147.055 3.57812C148.917 3.57812 150.63 3.83854 152.192 4.35938C153.755 4.88021 155.102 5.64844 156.235 6.66406C157.368 7.66667 158.247 8.91016 158.872 10.3945C159.51 11.8659 159.829 13.5651 159.829 15.4922ZM146.548 22.9922C147.329 22.875 148.038 22.6406 148.676 22.2891C149.327 21.9245 149.887 21.4818 150.356 20.9609C150.825 20.4271 151.183 19.8281 151.43 19.1641C151.691 18.487 151.821 17.7708 151.821 17.0156C151.821 16.2734 151.743 15.5833 151.587 14.9453C151.43 14.2943 151.176 13.7344 150.825 13.2656C150.473 12.7839 150.011 12.4062 149.438 12.1328C148.865 11.8464 148.162 11.6901 147.329 11.6641L146.548 22.9922Z" fill="#3C7FED"/>
</svg>
